<svg aria-hidden="true" style="position: absolute; width: 0; height: 0; overflow: hidden;" version="1.1" xmlns="http://www.w3.org/2000/svg" xmlns:xlink="http://www.w3.org/1999/xlink">
<defs>
<symbol id="icon-star" viewBox="0 0 32 32">
<path fill="#ffd057" style="fill: var(--color1, #ffd057); stroke: var(--color1, #ffd057)" stroke="#ffd057" stroke-linejoin="round" stroke-linecap="round" stroke-miterlimit="4" stroke-width="2.2857" d="M14.765 3.511c0.427-1.125 2.041-1.125 2.469 0l2.76 7.645c0.096 0.249 0.266 0.463 0.486 0.614s0.481 0.231 0.748 0.23h6.783c1.253 0 1.8 1.56 0.815 2.324l-4.827 4.343c-0.216 0.166-0.374 0.397-0.451 0.658s-0.070 0.541 0.022 0.798l1.763 7.471c0.429 1.2-0.96 2.231-2.011 1.492l-6.556-4.16c-0.224-0.158-0.492-0.242-0.767-0.242s-0.542 0.085-0.767 0.242l-6.556 4.16c-1.049 0.739-2.44-0.293-2.011-1.492l1.763-7.471c0.091-0.257 0.099-0.536 0.022-0.798s-0.235-0.492-0.451-0.658l-4.827-4.343c-0.987-0.764-0.437-2.324 0.813-2.324h6.783c0.267 0.001 0.528-0.079 0.749-0.23s0.39-0.365 0.486-0.614l2.76-7.645h0.001z"></path>
</symbol>
<symbol id="star-empty" viewBox="0 0 32 32">
<path d="M32 12.408l-11.056-1.607-4.944-10.018-4.944 10.018-11.056 1.607 8 7.798-1.889 11.011 9.889-5.199 9.889 5.199-1.889-11.011 8-7.798zM16 23.547l-6.983 3.671 1.334-7.776-5.65-5.507 7.808-1.134 3.492-7.075 3.492 7.075 7.807 1.134-5.65 5.507 1.334 7.776-6.983-3.671z"></path>
</symbol>
</defs>
</svg>
